PathFileType	4	(X/Y/Z)	Kaydara	
DataRate	CameraRate	NumFrames	NumMarkers	Units	OrigDataRate	OrigDataStartFrame	OrigNumFrames	
60.00	60.00	4	74	mm	60.00	1610	67	
Frame#	Time	Y_rasi			Y_rpsi			Y_lpsi			Y_fneck			Y_bneck			Y_fhead			Y_rhead			Y_rshld			Y_relbtop			Y_relbext			Y_relblow			Y_rwrext			Y_rwrtop			Y_rwrlow			Y_lshld			Y_lelbext			Y_lelblow			Y_lelbtop			Y_lwrext			Y_lwrtop			Y_lwrlow			Y_rtopleg			Y_ltopleg			Y_rkneefr			Y_rkneebk			Y_rkneeis			Y_lkneefr			Y_lknssbk			Y_lkneeis			Y_rankfr			Y_rankis			Y_rankbk			Y_lankfr			Y_lankbk			Y_lankis			Y_lhead			Y_lasi			D_rpsi			D_lpsi			D_fneck			D_bneck			D_fhead			D_rhead			D_lhead			D_rshld			D_relbtop			D_relbext			D_relblow			D_rwrext			D_rwrtop			D_rwrlow			D_lshld			D_lelbext			D_lelblow			D_lelbtop			D_lwrext			D_lwrtop			D_lwrlow			D_rtopleg			D_ltopleg			D_rkneefr			D_rkneebk			D_rkneeis			D_lkneefr			D_lknssbk			D_lkneeis			D_rankfr			D_rankis			D_rankbk			D_lankfr			D_lankbk			D_lankis			D_lasi			D_rasi			
		X1	Y1	Z1	X2	Y2	Z2	X3	Y3	Z3	X4	Y4	Z4	X5	Y5	Z5	X6	Y6	Z6	X7	Y7	Z7	X8	Y8	Z8	X9	Y9	Z9	X10	Y10	Z10	X11	Y11	Z11	X12	Y12	Z12	X13	Y13	Z13	X14	Y14	Z14	X15	Y15	Z15	X16	Y16	Z16	X17	Y17	Z17	X18	Y18	Z18	X19	Y19	Z19	X20	Y20	Z20	X21	Y21	Z21	X22	Y22	Z22	X23	Y23	Z23	X24	Y24	Z24	X25	Y25	Z25	X26	Y26	Z26	X27	Y27	Z27	X28	Y28	Z28	X29	Y29	Z29	X30	Y30	Z30	X31	Y31	Z31	X32	Y32	Z32	X33	Y33	Z33	X34	Y34	Z34	X35	Y35	Z35	X36	Y36	Z36	X37	Y37	Z37	X38	Y38	Z38	X39	Y39	Z39	X40	Y40	Z40	X41	Y41	Z41	X42	Y42	Z42	X43	Y43	Z43	X44	Y44	Z44	X45	Y45	Z45	X46	Y46	Z46	X47	Y47	Z47	X48	Y48	Z48	X49	Y49	Z49	X50	Y50	Z50	X51	Y51	Z51	X52	Y52	Z52	X53	Y53	Z53	X54	Y54	Z54	X55	Y55	Z55	X56	Y56	Z56	X57	Y57	Z57	X58	Y58	Z58	X59	Y59	Z59	X60	Y60	Z60	X61	Y61	Z61	X62	Y62	Z62	X63	Y63	Z63	X64	Y64	Z64	X65	Y65	Z65	X66	Y66	Z66	X67	Y67	Z67	X68	Y68	Z68	X69	Y69	Z69	X70	Y70	Z70	X71	Y71	Z71	X72	Y72	Z72	X73	Y73	Z73	X74	Y74	Z74	

26	26.817	-573.69465	1090.99289	-132.90739	-572.62718	1067.36633	-309.95047	-343.67302	1055.07057	-245.99207	-487.41493	1432.11044	-169.00702	-405.16792	1479.20013	-251.31397	-528.89160	1631.26190	-104.69097	-501.76804	1575.09949	-273.13839	-620.76935	1431.66595	-298.07962	-728.95401	1167.00150	-244.84119	-738.93295	1168.01987	-317.41491	-689.38126	1113.47008	-302.69114	-744.85054	1283.27713	-98.20681	-726.04111	1307.15729	-127.52745	-684.43138	1293.71185	-127.26287	-266.50257	1382.02133	-123.01970	-177.03115	1073.93356	-150.68544	-221.35458	1061.45020	-191.88526	-238.43912	1104.89990	-112.82589	-403.64746	955.98816	-47.40560	-395.88531	972.43095	-8.13653	-410.61974	1015.86235	-17.22309	-647.88437	916.01486	-261.59601	-306.82804	904.56223	-132.90026	-643.64746	413.89172	-282.05830	-623.22227	460.99449	-356.22700	-547.71301	423.16093	-272.97815	-343.85571	473.95222	-120.33752	-283.27703	496.51821	-212.86255	-402.45937	467.62478	-194.51500	-633.70747	143.20305	-331.60866	-562.77016	135.86334	-342.45850	-603.52119	137.82376	-396.88919	-277.23476	132.51783	-171.22425	-261.11908	130.78880	-238.61500	-334.15627	125.23308	-207.97083	-379.57645	1567.86011	-181.57284	-418.87138	1078.11867	-86.75192	-985.80368	1169.93835	570.42694	-1120.62340	1175.27756	454.72923	-977.57523	1600.27802	425.74150	-1072.43263	1650.40680	489.68239	-940.79819	1774.65790	285.80881	-983.75626	1801.86920	457.46136	-1099.17091	1777.44034	360.43549	-888.74191	1556.71051	586.54675	-853.28918	1190.34424	574.42261	-817.55127	1204.98672	629.84844	-891.94473	1189.54506	654.26796	-760.14633	919.05388	579.71092	-730.56381	933.58932	553.14476	-755.72556	940.89729	511.85524	-1209.68529	1545.75775	363.46165	-1219.48280	1173.30505	313.65210	-1195.64964	1154.45168	385.45811	-1156.60782	1179.26964	314.35547	-1165.77431	924.88350	284.22922	-1142.60727	941.74385	248.50605	-1102.01805	943.67233	275.07523	-867.56584	1035.58983	567.57763	-1132.28806	1026.05347	333.02162	-767.73476	564.80877	429.28368	-796.16669	564.16180	539.25537	-881.33415	540.87227	453.02151	-1016.55945	467.09801	360.59422	-1110.46143	514.11816	404.97551	-1024.84329	503.53355	472.18674	-787.94395	198.51549	536.71783	-861.13914	189.53226	512.52716	-846.02798	198.57012	597.34093	-1054.90479	158.15178	409.30714	-1075.39612	153.49871	486.81873	-992.24236	164.98955	446.21311	-1026.92017	1189.70093	323.12954	-867.81128	1186.56151	451.37600 
27	26.833	-573.88218	1090.78224	-133.61383	-573.00835	1067.42828	-309.73707	-343.89370	1055.03090	-246.34386	-487.66788	1432.28851	-167.64629	-405.12066	1479.06677	-249.91423	-528.20126	1631.62094	-103.39162	-500.69622	1575.13779	-271.63597	-622.69394	1429.92233	-296.76073	-719.78592	1162.20757	-260.91759	-730.86433	1162.42012	-330.86575	-679.11392	1109.48219	-321.39305	-744.31786	1254.16183	-99.66481	-726.32072	1282.26273	-125.34153	-684.17694	1270.61775	-125.33800	-266.49313	1381.33728	-122.37609	-177.21123	1073.27484	-151.22691	-221.77488	1060.92728	-192.26681	-238.27389	1104.62898	-111.64450	-403.09765	955.22690	-47.78930	-395.99072	971.93329	-8.06612	-410.26524	1015.04250	-16.91806	-648.15811	915.96436	-261.32881	-306.76147	904.56337	-133.50167	-643.76221	413.84289	-281.91967	-623.41244	460.97343	-356.09707	-547.81677	423.15647	-272.95805	-344.01016	474.20616	-118.14900	-283.31394	496.41899	-213.16994	-402.52632	467.55264	-194.64533	-633.69987	143.13863	-331.54404	-562.78446	135.84943	-342.45239	-603.55499	137.82393	-396.87004	-277.23381	132.53818	-171.31573	-261.13277	130.73764	-238.65698	-334.20471	125.23221	-207.98254	-378.66375	1567.05215	-180.01102	-418.78513	1077.88536	-86.77570	-987.23938	1169.29924	571.11103	-1122.09015	1175.10574	454.16508	-978.46695	1599.40262	425.45948	-1073.67332	1649.86649	488.90175	-941.22604	1773.46832	285.19089	-984.77631	1801.25031	456.69205	-1099.93584	1776.56097	359.22482	-890.67154	1556.68121	587.32887	-854.68666	1189.85489	573.91365	-819.05182	1204.57886	628.96065	-893.23906	1188.97415	654.13780	-761.24313	919.24683	577.16007	-732.17049	934.00871	550.24624	-757.49207	941.28166	508.99216	-1209.88762	1544.78851	361.96743	-1218.93272	1172.52457	311.22396	-1196.13029	1153.40729	383.01868	-1156.01318	1178.48999	312.64765	-1165.21400	924.08058	281.79552	-1141.17416	941.02303	246.72029	-1101.23856	942.65282	274.44687	-868.91052	1034.78889	568.77522	-1132.19681	1025.93056	332.70393	-767.59499	564.52450	428.27728	-796.67130	563.40595	538.09380	-881.38908	540.37098	451.23810	-1016.08063	467.02274	360.03216	-1110.16930	513.93459	404.08039	-1024.83864	503.36933	471.71513	-789.36287	197.84517	535.74314	-862.43546	189.11922	510.83271	-847.76680	198.05994	595.65147	-1054.72183	158.02796	409.06013	-1075.51765	153.47634	486.58936	-992.19925	164.89473	446.20800	-1026.80183	1189.28596	323.85239	-868.51112	1185.98228	453.07705 
28	26.850	-574.02725	1090.84473	-133.79299	-573.40595	1067.52373	-309.42995	-344.11816	1054.96468	-246.63954	-487.43832	1432.13440	-166.33636	-405.02907	1478.91357	-248.62305	-527.33292	1631.73126	-101.80223	-499.67113	1575.32333	-269.89748	-624.74300	1427.94159	-295.79445	-709.57016	1158.37723	-276.15824	-721.67030	1157.34558	-343.39138	-667.87636	1106.89575	-339.34875	-744.13872	1222.50954	-103.01323	-727.33421	1254.79515	-124.01419	-684.73686	1245.68199	-124.81300	-266.00605	1380.64285	-121.93386	-177.46294	1072.55318	-152.01302	-222.19395	1060.30853	-192.82135	-239.03128	1103.89992	-115.24026	-402.80552	954.15230	-47.93768	-395.31357	970.77347	-7.97487	-409.85104	1014.04305	-16.73604	-648.40958	915.86807	-261.06617	-306.70822	904.52461	-134.02500	-643.84369	413.78090	-281.74931	-623.58212	460.94566	-355.92556	-547.91416	423.12057	-272.84458	-343.73657	474.27578	-117.59347	-283.41843	496.36555	-213.33546	-402.65667	467.48169	-194.73207	-633.66573	143.08588	-331.47419	-562.78389	135.86171	-342.40417	-603.56964	137.83319	-396.81587	-277.26742	132.52755	-171.31029	-261.17004	130.71518	-238.68757	-334.22520	125.21707	-207.98782	-377.98569	1566.25122	-178.07779	-418.59371	1077.61360	-86.81514	-988.56850	1168.76732	571.85951	-1122.91649	1174.27826	454.66854	-979.56802	1599.11743	425.72987	-1074.95285	1649.45068	488.16380	-941.89743	1772.77679	284.95743	-985.99930	1800.90561	456.00643	-1100.84007	1775.83099	358.19603	-892.07901	1556.74911	587.55665	-855.88997	1189.68498	573.48030	-820.34081	1204.38484	628.30719	-894.35669	1188.82851	653.92456	-762.57416	919.34067	575.04894	-733.83224	934.38087	547.94189	-759.33578	941.55739	506.76865	-1209.92195	1543.76526	360.44205	-1217.98416	1171.65459	308.66024	-1196.15669	1152.30133	380.88512	-1155.19852	1177.51877	311.12333	-1164.45511	923.17093	279.46077	-1139.41216	940.03311	245.44401	-1100.30273	941.47995	273.90415	-869.98383	1033.85925	569.82105	-1132.04315	1025.80414	332.40101	-767.53807	564.21352	427.22935	-797.15454	562.70535	536.81976	-881.46088	539.90635	449.44614	-1015.58815	466.94675	359.55807	-1109.88472	513.81351	403.23425	-1025.02136	503.26935	471.29044	-790.92468	197.30730	534.37080	-863.80089	188.70085	508.87970	-850.15831	197.71845	593.97339	-1054.47701	157.92287	408.82065	-1075.45494	153.48066	486.31783	-992.14241	164.75000	446.22635	-1026.63750	1188.83667	324.42513	-869.08722	1185.36278	454.71783 
29	26.867	-574.36012	1090.77736	-134.77641	-573.80383	1067.66220	-309.10618	-344.68895	1054.99062	-246.43873	-487.20699	1431.93756	-165.23235	-405.13649	1478.74847	-247.47686	-526.42799	1631.77902	-99.70930	-498.86883	1575.40085	-268.15710	-626.68133	1425.99640	-295.33655	-698.33115	1155.82909	-289.83450	-711.66016	1152.98302	-354.86420	-655.40848	1106.16211	-355.22850	-744.24454	1189.23805	-108.48900	-728.47244	1225.13748	-124.18026	-685.40977	1218.48694	-124.31250	-265.98736	1380.16434	-121.51705	-177.66342	1072.08130	-152.93529	-222.54896	1059.99405	-193.52154	-239.13450	1103.20572	-116.69339	-401.69052	953.57437	-48.43139	-394.52389	969.73778	-8.40750	-409.37588	1013.07549	-16.44712	-648.58833	915.69168	-260.35675	-306.78120	904.48837	-134.40196	-643.90106	413.73737	-281.63122	-623.70636	460.92606	-355.78667	-547.97089	423.11531	-272.74471	-343.50842	474.12308	-116.55274	-283.57182	496.30489	-213.42600	-402.82837	467.42241	-194.83692	-633.64826	143.04502	-331.44661	-562.78290	135.82624	-342.37396	-603.57403	137.81868	-396.78089	-277.36088	132.50452	-171.25069	-261.20733	130.68771	-238.72974	-334.27635	125.16650	-207.98950	-377.55367	1565.35736	-175.84196	-418.56556	1077.32925	-86.83625	-989.72244	1168.29811	572.66502	-1123.32947	1174.07852	454.49558	-980.29404	1598.94577	425.48031	-1076.19492	1649.06387	487.44335	-942.74345	1772.37274	284.72488	-987.41646	1800.63278	455.51052	-1101.84387	1775.26962	357.29450	-893.33527	1556.98425	587.61738	-857.01538	1189.71436	573.06190	-821.51802	1204.41261	627.72774	-895.43037	1188.85941	653.66714	-764.13338	919.53873	573.29613	-735.47226	934.65897	545.84942	-761.37680	941.80588	504.87320	-1209.97154	1542.86407	359.05334	-1216.83556	1170.81970	306.30814	-1195.87646	1151.32004	378.63197	-1154.04335	1176.65390	309.66877	-1163.50021	922.37602	277.11660	-1137.62535	939.29855	243.96713	-1099.16481	940.51109	273.20065	-871.39648	1032.98172	571.33842	-1131.93703	1025.71144	332.25044	-767.57523	563.91731	426.03817	-797.80182	561.99089	535.63354	-881.54686	539.67682	447.67281	-1015.05325	466.87599	359.14791	-1109.48402	513.67882	402.49458	-1024.62685	503.17024	470.72418	-792.40280	196.84023	533.05889	-865.12039	188.39489	507.12715	-851.79237	197.46239	592.00428	-1054.19968	157.82660	408.57269	-1075.50003	153.48958	486.06331	-992.02644	164.71340	446.19621	-1026.37367	1188.35007	325.07568	-869.54697	1184.89037	456.20590 
